M48
; DRILL file {KiCad (5.1.5)-3} date 7.5.2020. 13:41:10
; FORMAT={-:-/ absolute / inch / decimal}
; #@! TF.CreationDate,2020-05-07T13:41:10+02:00
; #@! TF.GenerationSoftware,Kicad,Pcbnew,(5.1.5)-3
; #@! TF.FileFunction,Plated,1,2,PTH
FMAT,2
INCH
T1C0.0157
T2C0.0394
T3C0.0591
%
G90
G05
T1
X8.25Y-4.3881
X8.25Y-4.4619
X8.25Y-4.66
X8.35Y-3.955
X8.35Y-3.995
X8.375Y-4.45
X8.535Y-4.675
X8.555Y-4.15
X8.625Y-4.35
X8.75Y-4.185
X8.79Y-4.85
X8.8Y-3.955
X8.8Y-3.995
T2
X8.05Y-4.15
X8.05Y-4.25
X8.05Y-4.35
X8.05Y-4.45
X8.05Y-4.55
X8.05Y-4.65
X8.05Y-4.75
X8.05Y-4.85
X8.95Y-4.15
X8.95Y-4.25
X8.95Y-4.35
X8.95Y-4.45
X8.95Y-4.55
X8.95Y-4.65
X8.95Y-4.75
X8.95Y-4.85
T3
X8.2Y-3.52
X8.4Y-3.52
X8.6Y-3.52
X8.8Y-3.52
T0
M30
