G04 #@! TF.GenerationSoftware,KiCad,Pcbnew,(5.1.5)-3*
G04 #@! TF.CreationDate,2020-05-07T13:41:12+02:00*
G04 #@! TF.ProjectId,TPS25921A_eFuse,54505332-3539-4323-9141-5f6546757365,rev?*
G04 #@! TF.SameCoordinates,Original*
G04 #@! TF.FileFunction,Copper,L2,Bot*
G04 #@! TF.FilePolarity,Positive*
%FSLAX46Y46*%
G04 Gerber Fmt 4.6, Leading zero omitted, Abs format (unit mm)*
G04 Created by KiCad (PCBNEW (5.1.5)-3) date 2020-05-07 13:41:12*
%MOMM*%
%LPD*%
G04 APERTURE LIST*
%ADD10R,1.700000X1.700000*%
%ADD11O,1.700000X1.700000*%
%ADD12C,3.200000*%
%ADD13C,0.800000*%
%ADD14C,0.381000*%
%ADD15C,0.254000*%
G04 APERTURE END LIST*
D10*
X204470000Y-105410000D03*
D11*
X204470000Y-107950000D03*
X204470000Y-110490000D03*
X204470000Y-113030000D03*
X204470000Y-115570000D03*
X204470000Y-118110000D03*
X204470000Y-120650000D03*
X204470000Y-123190000D03*
D12*
X218440000Y-89408000D03*
X223520000Y-89408000D03*
X213360000Y-89408000D03*
X208280000Y-89408000D03*
D11*
X227330000Y-123190000D03*
X227330000Y-120650000D03*
X227330000Y-118110000D03*
X227330000Y-115570000D03*
X227330000Y-113030000D03*
X227330000Y-110490000D03*
X227330000Y-107950000D03*
D10*
X227330000Y-105410000D03*
D13*
X223520000Y-101473000D03*
X223520000Y-100457000D03*
X212090000Y-101473000D03*
X212090000Y-100457000D03*
X217297000Y-105410000D03*
X222250000Y-106299000D03*
X216789000Y-118745000D03*
X209550000Y-118364000D03*
X223266000Y-123190000D03*
X212725000Y-113030000D03*
X209550000Y-111457500D03*
X219075000Y-110490000D03*
X209550000Y-113332500D03*
D14*
X212725000Y-113030000D02*
X212725000Y-112395000D01*
X211787500Y-111457500D02*
X209550000Y-111457500D01*
X212725000Y-112395000D02*
X211787500Y-111457500D01*
X209550000Y-113332500D02*
X210487500Y-113332500D01*
X210487500Y-113332500D02*
X211455000Y-114300000D01*
X211455000Y-114300000D02*
X213360000Y-114300000D01*
X213360000Y-114300000D02*
X213995000Y-113665000D01*
X213995000Y-113665000D02*
X213995000Y-111125000D01*
X214630000Y-110490000D02*
X219075000Y-110490000D01*
X213995000Y-111125000D02*
X214630000Y-110490000D01*
D15*
G36*
X227940000Y-103921928D02*
G01*
X226480000Y-103921928D01*
X226355518Y-103934188D01*
X226235820Y-103970498D01*
X226125506Y-104029463D01*
X226028815Y-104108815D01*
X225949463Y-104205506D01*
X225890498Y-104315820D01*
X225854188Y-104435518D01*
X225841928Y-104560000D01*
X225841928Y-106260000D01*
X225854188Y-106384482D01*
X225890498Y-106504180D01*
X225949463Y-106614494D01*
X226028815Y-106711185D01*
X226125506Y-106790537D01*
X226235820Y-106849502D01*
X226308380Y-106871513D01*
X226176525Y-107003368D01*
X226014010Y-107246589D01*
X225902068Y-107516842D01*
X225845000Y-107803740D01*
X225845000Y-108096260D01*
X225902068Y-108383158D01*
X226014010Y-108653411D01*
X226176525Y-108896632D01*
X226383368Y-109103475D01*
X226557760Y-109220000D01*
X226383368Y-109336525D01*
X226176525Y-109543368D01*
X226014010Y-109786589D01*
X225902068Y-110056842D01*
X225845000Y-110343740D01*
X225845000Y-110636260D01*
X225902068Y-110923158D01*
X226014010Y-111193411D01*
X226176525Y-111436632D01*
X226383368Y-111643475D01*
X226557760Y-111760000D01*
X226383368Y-111876525D01*
X226176525Y-112083368D01*
X226014010Y-112326589D01*
X225902068Y-112596842D01*
X225845000Y-112883740D01*
X225845000Y-113176260D01*
X225902068Y-113463158D01*
X226014010Y-113733411D01*
X226176525Y-113976632D01*
X226383368Y-114183475D01*
X226557760Y-114300000D01*
X226383368Y-114416525D01*
X226176525Y-114623368D01*
X226014010Y-114866589D01*
X225902068Y-115136842D01*
X225845000Y-115423740D01*
X225845000Y-115716260D01*
X225902068Y-116003158D01*
X226014010Y-116273411D01*
X226176525Y-116516632D01*
X226383368Y-116723475D01*
X226557760Y-116840000D01*
X226383368Y-116956525D01*
X226176525Y-117163368D01*
X226014010Y-117406589D01*
X225902068Y-117676842D01*
X225845000Y-117963740D01*
X225845000Y-118256260D01*
X225902068Y-118543158D01*
X226014010Y-118813411D01*
X226176525Y-119056632D01*
X226383368Y-119263475D01*
X226557760Y-119380000D01*
X226383368Y-119496525D01*
X226176525Y-119703368D01*
X226014010Y-119946589D01*
X225902068Y-120216842D01*
X225845000Y-120503740D01*
X225845000Y-120796260D01*
X225902068Y-121083158D01*
X226014010Y-121353411D01*
X226176525Y-121596632D01*
X226383368Y-121803475D01*
X226626589Y-121965990D01*
X226896842Y-122077932D01*
X227183740Y-122135000D01*
X227476260Y-122135000D01*
X227763158Y-122077932D01*
X227940001Y-122004682D01*
X227940001Y-124186618D01*
X225786620Y-126340000D01*
X203860000Y-126340000D01*
X203860000Y-122004682D01*
X204036842Y-122077932D01*
X204323740Y-122135000D01*
X204616260Y-122135000D01*
X204903158Y-122077932D01*
X205173411Y-121965990D01*
X205416632Y-121803475D01*
X205623475Y-121596632D01*
X205785990Y-121353411D01*
X205897932Y-121083158D01*
X205955000Y-120796260D01*
X205955000Y-120503740D01*
X205897932Y-120216842D01*
X205785990Y-119946589D01*
X205623475Y-119703368D01*
X205416632Y-119496525D01*
X205242240Y-119380000D01*
X205416632Y-119263475D01*
X205623475Y-119056632D01*
X205785990Y-118813411D01*
X205897932Y-118543158D01*
X205955000Y-118256260D01*
X205955000Y-117963740D01*
X205897932Y-117676842D01*
X205785990Y-117406589D01*
X205623475Y-117163368D01*
X205416632Y-116956525D01*
X205242240Y-116840000D01*
X205416632Y-116723475D01*
X205623475Y-116516632D01*
X205785990Y-116273411D01*
X205897932Y-116003158D01*
X205955000Y-115716260D01*
X205955000Y-115423740D01*
X205897932Y-115136842D01*
X205785990Y-114866589D01*
X205623475Y-114623368D01*
X205416632Y-114416525D01*
X205242240Y-114300000D01*
X205416632Y-114183475D01*
X205623475Y-113976632D01*
X205785990Y-113733411D01*
X205897932Y-113463158D01*
X205955000Y-113176260D01*
X205955000Y-112883740D01*
X205897932Y-112596842D01*
X205785990Y-112326589D01*
X205623475Y-112083368D01*
X205416632Y-111876525D01*
X205242240Y-111760000D01*
X205416632Y-111643475D01*
X205623475Y-111436632D01*
X205677644Y-111355561D01*
X208515000Y-111355561D01*
X208515000Y-111559439D01*
X208554774Y-111759398D01*
X208632795Y-111947756D01*
X208746063Y-112117274D01*
X208890226Y-112261437D01*
X209059744Y-112374705D01*
X209108740Y-112395000D01*
X209059744Y-112415295D01*
X208890226Y-112528563D01*
X208746063Y-112672726D01*
X208632795Y-112842244D01*
X208554774Y-113030602D01*
X208515000Y-113230561D01*
X208515000Y-113434439D01*
X208554774Y-113634398D01*
X208632795Y-113822756D01*
X208746063Y-113992274D01*
X208890226Y-114136437D01*
X209059744Y-114249705D01*
X209248102Y-114327726D01*
X209448061Y-114367500D01*
X209651939Y-114367500D01*
X209851898Y-114327726D01*
X210040256Y-114249705D01*
X210158359Y-114170791D01*
X210842611Y-114855045D01*
X210868459Y-114886541D01*
X210899955Y-114912389D01*
X210899958Y-114912392D01*
X210994157Y-114989699D01*
X211137566Y-115066353D01*
X211293174Y-115113556D01*
X211414447Y-115125500D01*
X211414449Y-115125500D01*
X211455000Y-115129494D01*
X211495550Y-115125500D01*
X213319450Y-115125500D01*
X213360000Y-115129494D01*
X213400550Y-115125500D01*
X213400553Y-115125500D01*
X213521826Y-115113556D01*
X213677434Y-115066353D01*
X213820842Y-114989699D01*
X213946541Y-114886541D01*
X213972397Y-114855035D01*
X214550045Y-114277388D01*
X214581541Y-114251541D01*
X214607389Y-114220045D01*
X214607392Y-114220042D01*
X214684699Y-114125843D01*
X214761353Y-113982434D01*
X214763113Y-113976632D01*
X214808556Y-113826826D01*
X214820500Y-113705553D01*
X214820500Y-113705551D01*
X214824494Y-113665000D01*
X214820500Y-113624450D01*
X214820500Y-111466933D01*
X214971933Y-111315500D01*
X218447497Y-111315500D01*
X218584744Y-111407205D01*
X218773102Y-111485226D01*
X218973061Y-111525000D01*
X219176939Y-111525000D01*
X219376898Y-111485226D01*
X219565256Y-111407205D01*
X219734774Y-111293937D01*
X219878937Y-111149774D01*
X219992205Y-110980256D01*
X220070226Y-110791898D01*
X220110000Y-110591939D01*
X220110000Y-110388061D01*
X220070226Y-110188102D01*
X219992205Y-109999744D01*
X219878937Y-109830226D01*
X219734774Y-109686063D01*
X219565256Y-109572795D01*
X219376898Y-109494774D01*
X219176939Y-109455000D01*
X218973061Y-109455000D01*
X218773102Y-109494774D01*
X218584744Y-109572795D01*
X218447497Y-109664500D01*
X214670550Y-109664500D01*
X214630000Y-109660506D01*
X214589449Y-109664500D01*
X214589447Y-109664500D01*
X214468174Y-109676444D01*
X214312566Y-109723647D01*
X214169157Y-109800301D01*
X214074958Y-109877608D01*
X214074955Y-109877611D01*
X214043459Y-109903459D01*
X214017610Y-109934956D01*
X213439961Y-110512607D01*
X213408460Y-110538459D01*
X213382609Y-110569959D01*
X213305301Y-110664158D01*
X213228647Y-110807567D01*
X213181445Y-110963174D01*
X213165506Y-111125000D01*
X213169501Y-111165560D01*
X213169501Y-111672068D01*
X212399898Y-110902466D01*
X212374041Y-110870959D01*
X212248342Y-110767801D01*
X212104934Y-110691147D01*
X211949326Y-110643944D01*
X211828053Y-110632000D01*
X211828050Y-110632000D01*
X211787500Y-110628006D01*
X211746950Y-110632000D01*
X210177503Y-110632000D01*
X210040256Y-110540295D01*
X209851898Y-110462274D01*
X209651939Y-110422500D01*
X209448061Y-110422500D01*
X209248102Y-110462274D01*
X209059744Y-110540295D01*
X208890226Y-110653563D01*
X208746063Y-110797726D01*
X208632795Y-110967244D01*
X208554774Y-111155602D01*
X208515000Y-111355561D01*
X205677644Y-111355561D01*
X205785990Y-111193411D01*
X205897932Y-110923158D01*
X205955000Y-110636260D01*
X205955000Y-110343740D01*
X205897932Y-110056842D01*
X205785990Y-109786589D01*
X205623475Y-109543368D01*
X205416632Y-109336525D01*
X205242240Y-109220000D01*
X205416632Y-109103475D01*
X205623475Y-108896632D01*
X205785990Y-108653411D01*
X205897932Y-108383158D01*
X205955000Y-108096260D01*
X205955000Y-107803740D01*
X205897932Y-107516842D01*
X205785990Y-107246589D01*
X205623475Y-107003368D01*
X205491620Y-106871513D01*
X205564180Y-106849502D01*
X205674494Y-106790537D01*
X205771185Y-106711185D01*
X205850537Y-106614494D01*
X205909502Y-106504180D01*
X205945812Y-106384482D01*
X205958072Y-106260000D01*
X205958072Y-104560000D01*
X205945812Y-104435518D01*
X205909502Y-104315820D01*
X205850537Y-104205506D01*
X205771185Y-104108815D01*
X205674494Y-104029463D01*
X205564180Y-103970498D01*
X205444482Y-103934188D01*
X205320000Y-103921928D01*
X203860000Y-103921928D01*
X203860000Y-89187872D01*
X206045000Y-89187872D01*
X206045000Y-89628128D01*
X206130890Y-90059925D01*
X206299369Y-90466669D01*
X206543962Y-90832729D01*
X206855271Y-91144038D01*
X207221331Y-91388631D01*
X207628075Y-91557110D01*
X208059872Y-91643000D01*
X208500128Y-91643000D01*
X208931925Y-91557110D01*
X209338669Y-91388631D01*
X209704729Y-91144038D01*
X210016038Y-90832729D01*
X210260631Y-90466669D01*
X210429110Y-90059925D01*
X210515000Y-89628128D01*
X210515000Y-89187872D01*
X216205000Y-89187872D01*
X216205000Y-89628128D01*
X216290890Y-90059925D01*
X216459369Y-90466669D01*
X216703962Y-90832729D01*
X217015271Y-91144038D01*
X217381331Y-91388631D01*
X217788075Y-91557110D01*
X218219872Y-91643000D01*
X218660128Y-91643000D01*
X219091925Y-91557110D01*
X219498669Y-91388631D01*
X219864729Y-91144038D01*
X220176038Y-90832729D01*
X220420631Y-90466669D01*
X220589110Y-90059925D01*
X220675000Y-89628128D01*
X220675000Y-89187872D01*
X220589110Y-88756075D01*
X220420631Y-88349331D01*
X220176038Y-87983271D01*
X219864729Y-87671962D01*
X219498669Y-87427369D01*
X219091925Y-87258890D01*
X218660128Y-87173000D01*
X218219872Y-87173000D01*
X217788075Y-87258890D01*
X217381331Y-87427369D01*
X217015271Y-87671962D01*
X216703962Y-87983271D01*
X216459369Y-88349331D01*
X216290890Y-88756075D01*
X216205000Y-89187872D01*
X210515000Y-89187872D01*
X210429110Y-88756075D01*
X210260631Y-88349331D01*
X210016038Y-87983271D01*
X209704729Y-87671962D01*
X209338669Y-87427369D01*
X208931925Y-87258890D01*
X208500128Y-87173000D01*
X208059872Y-87173000D01*
X207628075Y-87258890D01*
X207221331Y-87427369D01*
X206855271Y-87671962D01*
X206543962Y-87983271D01*
X206299369Y-88349331D01*
X206130890Y-88756075D01*
X206045000Y-89187872D01*
X203860000Y-89187872D01*
X203860000Y-84734000D01*
X227940000Y-84734000D01*
X227940000Y-103921928D01*
G37*
X227940000Y-103921928D02*
X226480000Y-103921928D01*
X226355518Y-103934188D01*
X226235820Y-103970498D01*
X226125506Y-104029463D01*
X226028815Y-104108815D01*
X225949463Y-104205506D01*
X225890498Y-104315820D01*
X225854188Y-104435518D01*
X225841928Y-104560000D01*
X225841928Y-106260000D01*
X225854188Y-106384482D01*
X225890498Y-106504180D01*
X225949463Y-106614494D01*
X226028815Y-106711185D01*
X226125506Y-106790537D01*
X226235820Y-106849502D01*
X226308380Y-106871513D01*
X226176525Y-107003368D01*
X226014010Y-107246589D01*
X225902068Y-107516842D01*
X225845000Y-107803740D01*
X225845000Y-108096260D01*
X225902068Y-108383158D01*
X226014010Y-108653411D01*
X226176525Y-108896632D01*
X226383368Y-109103475D01*
X226557760Y-109220000D01*
X226383368Y-109336525D01*
X226176525Y-109543368D01*
X226014010Y-109786589D01*
X225902068Y-110056842D01*
X225845000Y-110343740D01*
X225845000Y-110636260D01*
X225902068Y-110923158D01*
X226014010Y-111193411D01*
X226176525Y-111436632D01*
X226383368Y-111643475D01*
X226557760Y-111760000D01*
X226383368Y-111876525D01*
X226176525Y-112083368D01*
X226014010Y-112326589D01*
X225902068Y-112596842D01*
X225845000Y-112883740D01*
X225845000Y-113176260D01*
X225902068Y-113463158D01*
X226014010Y-113733411D01*
X226176525Y-113976632D01*
X226383368Y-114183475D01*
X226557760Y-114300000D01*
X226383368Y-114416525D01*
X226176525Y-114623368D01*
X226014010Y-114866589D01*
X225902068Y-115136842D01*
X225845000Y-115423740D01*
X225845000Y-115716260D01*
X225902068Y-116003158D01*
X226014010Y-116273411D01*
X226176525Y-116516632D01*
X226383368Y-116723475D01*
X226557760Y-116840000D01*
X226383368Y-116956525D01*
X226176525Y-117163368D01*
X226014010Y-117406589D01*
X225902068Y-117676842D01*
X225845000Y-117963740D01*
X225845000Y-118256260D01*
X225902068Y-118543158D01*
X226014010Y-118813411D01*
X226176525Y-119056632D01*
X226383368Y-119263475D01*
X226557760Y-119380000D01*
X226383368Y-119496525D01*
X226176525Y-119703368D01*
X226014010Y-119946589D01*
X225902068Y-120216842D01*
X225845000Y-120503740D01*
X225845000Y-120796260D01*
X225902068Y-121083158D01*
X226014010Y-121353411D01*
X226176525Y-121596632D01*
X226383368Y-121803475D01*
X226626589Y-121965990D01*
X226896842Y-122077932D01*
X227183740Y-122135000D01*
X227476260Y-122135000D01*
X227763158Y-122077932D01*
X227940001Y-122004682D01*
X227940001Y-124186618D01*
X225786620Y-126340000D01*
X203860000Y-126340000D01*
X203860000Y-122004682D01*
X204036842Y-122077932D01*
X204323740Y-122135000D01*
X204616260Y-122135000D01*
X204903158Y-122077932D01*
X205173411Y-121965990D01*
X205416632Y-121803475D01*
X205623475Y-121596632D01*
X205785990Y-121353411D01*
X205897932Y-121083158D01*
X205955000Y-120796260D01*
X205955000Y-120503740D01*
X205897932Y-120216842D01*
X205785990Y-119946589D01*
X205623475Y-119703368D01*
X205416632Y-119496525D01*
X205242240Y-119380000D01*
X205416632Y-119263475D01*
X205623475Y-119056632D01*
X205785990Y-118813411D01*
X205897932Y-118543158D01*
X205955000Y-118256260D01*
X205955000Y-117963740D01*
X205897932Y-117676842D01*
X205785990Y-117406589D01*
X205623475Y-117163368D01*
X205416632Y-116956525D01*
X205242240Y-116840000D01*
X205416632Y-116723475D01*
X205623475Y-116516632D01*
X205785990Y-116273411D01*
X205897932Y-116003158D01*
X205955000Y-115716260D01*
X205955000Y-115423740D01*
X205897932Y-115136842D01*
X205785990Y-114866589D01*
X205623475Y-114623368D01*
X205416632Y-114416525D01*
X205242240Y-114300000D01*
X205416632Y-114183475D01*
X205623475Y-113976632D01*
X205785990Y-113733411D01*
X205897932Y-113463158D01*
X205955000Y-113176260D01*
X205955000Y-112883740D01*
X205897932Y-112596842D01*
X205785990Y-112326589D01*
X205623475Y-112083368D01*
X205416632Y-111876525D01*
X205242240Y-111760000D01*
X205416632Y-111643475D01*
X205623475Y-111436632D01*
X205677644Y-111355561D01*
X208515000Y-111355561D01*
X208515000Y-111559439D01*
X208554774Y-111759398D01*
X208632795Y-111947756D01*
X208746063Y-112117274D01*
X208890226Y-112261437D01*
X209059744Y-112374705D01*
X209108740Y-112395000D01*
X209059744Y-112415295D01*
X208890226Y-112528563D01*
X208746063Y-112672726D01*
X208632795Y-112842244D01*
X208554774Y-113030602D01*
X208515000Y-113230561D01*
X208515000Y-113434439D01*
X208554774Y-113634398D01*
X208632795Y-113822756D01*
X208746063Y-113992274D01*
X208890226Y-114136437D01*
X209059744Y-114249705D01*
X209248102Y-114327726D01*
X209448061Y-114367500D01*
X209651939Y-114367500D01*
X209851898Y-114327726D01*
X210040256Y-114249705D01*
X210158359Y-114170791D01*
X210842611Y-114855045D01*
X210868459Y-114886541D01*
X210899955Y-114912389D01*
X210899958Y-114912392D01*
X210994157Y-114989699D01*
X211137566Y-115066353D01*
X211293174Y-115113556D01*
X211414447Y-115125500D01*
X211414449Y-115125500D01*
X211455000Y-115129494D01*
X211495550Y-115125500D01*
X213319450Y-115125500D01*
X213360000Y-115129494D01*
X213400550Y-115125500D01*
X213400553Y-115125500D01*
X213521826Y-115113556D01*
X213677434Y-115066353D01*
X213820842Y-114989699D01*
X213946541Y-114886541D01*
X213972397Y-114855035D01*
X214550045Y-114277388D01*
X214581541Y-114251541D01*
X214607389Y-114220045D01*
X214607392Y-114220042D01*
X214684699Y-114125843D01*
X214761353Y-113982434D01*
X214763113Y-113976632D01*
X214808556Y-113826826D01*
X214820500Y-113705553D01*
X214820500Y-113705551D01*
X214824494Y-113665000D01*
X214820500Y-113624450D01*
X214820500Y-111466933D01*
X214971933Y-111315500D01*
X218447497Y-111315500D01*
X218584744Y-111407205D01*
X218773102Y-111485226D01*
X218973061Y-111525000D01*
X219176939Y-111525000D01*
X219376898Y-111485226D01*
X219565256Y-111407205D01*
X219734774Y-111293937D01*
X219878937Y-111149774D01*
X219992205Y-110980256D01*
X220070226Y-110791898D01*
X220110000Y-110591939D01*
X220110000Y-110388061D01*
X220070226Y-110188102D01*
X219992205Y-109999744D01*
X219878937Y-109830226D01*
X219734774Y-109686063D01*
X219565256Y-109572795D01*
X219376898Y-109494774D01*
X219176939Y-109455000D01*
X218973061Y-109455000D01*
X218773102Y-109494774D01*
X218584744Y-109572795D01*
X218447497Y-109664500D01*
X214670550Y-109664500D01*
X214630000Y-109660506D01*
X214589449Y-109664500D01*
X214589447Y-109664500D01*
X214468174Y-109676444D01*
X214312566Y-109723647D01*
X214169157Y-109800301D01*
X214074958Y-109877608D01*
X214074955Y-109877611D01*
X214043459Y-109903459D01*
X214017610Y-109934956D01*
X213439961Y-110512607D01*
X213408460Y-110538459D01*
X213382609Y-110569959D01*
X213305301Y-110664158D01*
X213228647Y-110807567D01*
X213181445Y-110963174D01*
X213165506Y-111125000D01*
X213169501Y-111165560D01*
X213169501Y-111672068D01*
X212399898Y-110902466D01*
X212374041Y-110870959D01*
X212248342Y-110767801D01*
X212104934Y-110691147D01*
X211949326Y-110643944D01*
X211828053Y-110632000D01*
X211828050Y-110632000D01*
X211787500Y-110628006D01*
X211746950Y-110632000D01*
X210177503Y-110632000D01*
X210040256Y-110540295D01*
X209851898Y-110462274D01*
X209651939Y-110422500D01*
X209448061Y-110422500D01*
X209248102Y-110462274D01*
X209059744Y-110540295D01*
X208890226Y-110653563D01*
X208746063Y-110797726D01*
X208632795Y-110967244D01*
X208554774Y-111155602D01*
X208515000Y-111355561D01*
X205677644Y-111355561D01*
X205785990Y-111193411D01*
X205897932Y-110923158D01*
X205955000Y-110636260D01*
X205955000Y-110343740D01*
X205897932Y-110056842D01*
X205785990Y-109786589D01*
X205623475Y-109543368D01*
X205416632Y-109336525D01*
X205242240Y-109220000D01*
X205416632Y-109103475D01*
X205623475Y-108896632D01*
X205785990Y-108653411D01*
X205897932Y-108383158D01*
X205955000Y-108096260D01*
X205955000Y-107803740D01*
X205897932Y-107516842D01*
X205785990Y-107246589D01*
X205623475Y-107003368D01*
X205491620Y-106871513D01*
X205564180Y-106849502D01*
X205674494Y-106790537D01*
X205771185Y-106711185D01*
X205850537Y-106614494D01*
X205909502Y-106504180D01*
X205945812Y-106384482D01*
X205958072Y-106260000D01*
X205958072Y-104560000D01*
X205945812Y-104435518D01*
X205909502Y-104315820D01*
X205850537Y-104205506D01*
X205771185Y-104108815D01*
X205674494Y-104029463D01*
X205564180Y-103970498D01*
X205444482Y-103934188D01*
X205320000Y-103921928D01*
X203860000Y-103921928D01*
X203860000Y-89187872D01*
X206045000Y-89187872D01*
X206045000Y-89628128D01*
X206130890Y-90059925D01*
X206299369Y-90466669D01*
X206543962Y-90832729D01*
X206855271Y-91144038D01*
X207221331Y-91388631D01*
X207628075Y-91557110D01*
X208059872Y-91643000D01*
X208500128Y-91643000D01*
X208931925Y-91557110D01*
X209338669Y-91388631D01*
X209704729Y-91144038D01*
X210016038Y-90832729D01*
X210260631Y-90466669D01*
X210429110Y-90059925D01*
X210515000Y-89628128D01*
X210515000Y-89187872D01*
X216205000Y-89187872D01*
X216205000Y-89628128D01*
X216290890Y-90059925D01*
X216459369Y-90466669D01*
X216703962Y-90832729D01*
X217015271Y-91144038D01*
X217381331Y-91388631D01*
X217788075Y-91557110D01*
X218219872Y-91643000D01*
X218660128Y-91643000D01*
X219091925Y-91557110D01*
X219498669Y-91388631D01*
X219864729Y-91144038D01*
X220176038Y-90832729D01*
X220420631Y-90466669D01*
X220589110Y-90059925D01*
X220675000Y-89628128D01*
X220675000Y-89187872D01*
X220589110Y-88756075D01*
X220420631Y-88349331D01*
X220176038Y-87983271D01*
X219864729Y-87671962D01*
X219498669Y-87427369D01*
X219091925Y-87258890D01*
X218660128Y-87173000D01*
X218219872Y-87173000D01*
X217788075Y-87258890D01*
X217381331Y-87427369D01*
X217015271Y-87671962D01*
X216703962Y-87983271D01*
X216459369Y-88349331D01*
X216290890Y-88756075D01*
X216205000Y-89187872D01*
X210515000Y-89187872D01*
X210429110Y-88756075D01*
X210260631Y-88349331D01*
X210016038Y-87983271D01*
X209704729Y-87671962D01*
X209338669Y-87427369D01*
X208931925Y-87258890D01*
X208500128Y-87173000D01*
X208059872Y-87173000D01*
X207628075Y-87258890D01*
X207221331Y-87427369D01*
X206855271Y-87671962D01*
X206543962Y-87983271D01*
X206299369Y-88349331D01*
X206130890Y-88756075D01*
X206045000Y-89187872D01*
X203860000Y-89187872D01*
X203860000Y-84734000D01*
X227940000Y-84734000D01*
X227940000Y-103921928D01*
M02*
