G04 #@! TF.GenerationSoftware,KiCad,Pcbnew,(5.1.5)-3*
G04 #@! TF.CreationDate,2020-05-07T13:41:12+02:00*
G04 #@! TF.ProjectId,TPS25921A_eFuse,54505332-3539-4323-9141-5f6546757365,rev?*
G04 #@! TF.SameCoordinates,Original*
G04 #@! TF.FileFunction,Soldermask,Top*
G04 #@! TF.FilePolarity,Negative*
%FSLAX46Y46*%
G04 Gerber Fmt 4.6, Leading zero omitted, Abs format (unit mm)*
G04 Created by KiCad (PCBNEW (5.1.5)-3) date 2020-05-07 13:41:12*
%MOMM*%
%LPD*%
G04 APERTURE LIST*
%ADD10C,0.100000*%
G04 APERTURE END LIST*
D10*
G36*
X227443512Y-122293927D02*
G01*
X227592812Y-122323624D01*
X227756784Y-122391544D01*
X227904354Y-122490147D01*
X228029853Y-122615646D01*
X228128456Y-122763216D01*
X228196376Y-122927188D01*
X228231000Y-123101259D01*
X228231000Y-123278741D01*
X228196376Y-123452812D01*
X228128456Y-123616784D01*
X228029853Y-123764354D01*
X227904354Y-123889853D01*
X227756784Y-123988456D01*
X227592812Y-124056376D01*
X227443512Y-124086073D01*
X227418742Y-124091000D01*
X227241258Y-124091000D01*
X227216488Y-124086073D01*
X227067188Y-124056376D01*
X226903216Y-123988456D01*
X226755646Y-123889853D01*
X226630147Y-123764354D01*
X226531544Y-123616784D01*
X226463624Y-123452812D01*
X226429000Y-123278741D01*
X226429000Y-123101259D01*
X226463624Y-122927188D01*
X226531544Y-122763216D01*
X226630147Y-122615646D01*
X226755646Y-122490147D01*
X226903216Y-122391544D01*
X227067188Y-122323624D01*
X227216488Y-122293927D01*
X227241258Y-122289000D01*
X227418742Y-122289000D01*
X227443512Y-122293927D01*
G37*
G36*
X204583512Y-122293927D02*
G01*
X204732812Y-122323624D01*
X204896784Y-122391544D01*
X205044354Y-122490147D01*
X205169853Y-122615646D01*
X205268456Y-122763216D01*
X205336376Y-122927188D01*
X205371000Y-123101259D01*
X205371000Y-123278741D01*
X205336376Y-123452812D01*
X205268456Y-123616784D01*
X205169853Y-123764354D01*
X205044354Y-123889853D01*
X204896784Y-123988456D01*
X204732812Y-124056376D01*
X204583512Y-124086073D01*
X204558742Y-124091000D01*
X204381258Y-124091000D01*
X204356488Y-124086073D01*
X204207188Y-124056376D01*
X204043216Y-123988456D01*
X203895646Y-123889853D01*
X203770147Y-123764354D01*
X203671544Y-123616784D01*
X203603624Y-123452812D01*
X203569000Y-123278741D01*
X203569000Y-123101259D01*
X203603624Y-122927188D01*
X203671544Y-122763216D01*
X203770147Y-122615646D01*
X203895646Y-122490147D01*
X204043216Y-122391544D01*
X204207188Y-122323624D01*
X204356488Y-122293927D01*
X204381258Y-122289000D01*
X204558742Y-122289000D01*
X204583512Y-122293927D01*
G37*
G36*
X223559468Y-122443565D02*
G01*
X223598138Y-122455296D01*
X223633777Y-122474346D01*
X223665017Y-122499983D01*
X223690654Y-122531223D01*
X223709704Y-122566862D01*
X223721435Y-122605532D01*
X223726000Y-122651888D01*
X223726000Y-123728112D01*
X223721435Y-123774468D01*
X223709704Y-123813138D01*
X223690654Y-123848777D01*
X223665017Y-123880017D01*
X223633777Y-123905654D01*
X223598138Y-123924704D01*
X223559468Y-123936435D01*
X223513112Y-123941000D01*
X222861888Y-123941000D01*
X222815532Y-123936435D01*
X222776862Y-123924704D01*
X222741223Y-123905654D01*
X222709983Y-123880017D01*
X222684346Y-123848777D01*
X222665296Y-123813138D01*
X222653565Y-123774468D01*
X222649000Y-123728112D01*
X222649000Y-122651888D01*
X222653565Y-122605532D01*
X222665296Y-122566862D01*
X222684346Y-122531223D01*
X222709983Y-122499983D01*
X222741223Y-122474346D01*
X222776862Y-122455296D01*
X222815532Y-122443565D01*
X222861888Y-122439000D01*
X223513112Y-122439000D01*
X223559468Y-122443565D01*
G37*
G36*
X221684468Y-122443565D02*
G01*
X221723138Y-122455296D01*
X221758777Y-122474346D01*
X221790017Y-122499983D01*
X221815654Y-122531223D01*
X221834704Y-122566862D01*
X221846435Y-122605532D01*
X221851000Y-122651888D01*
X221851000Y-123728112D01*
X221846435Y-123774468D01*
X221834704Y-123813138D01*
X221815654Y-123848777D01*
X221790017Y-123880017D01*
X221758777Y-123905654D01*
X221723138Y-123924704D01*
X221684468Y-123936435D01*
X221638112Y-123941000D01*
X220986888Y-123941000D01*
X220940532Y-123936435D01*
X220901862Y-123924704D01*
X220866223Y-123905654D01*
X220834983Y-123880017D01*
X220809346Y-123848777D01*
X220790296Y-123813138D01*
X220778565Y-123774468D01*
X220774000Y-123728112D01*
X220774000Y-122651888D01*
X220778565Y-122605532D01*
X220790296Y-122566862D01*
X220809346Y-122531223D01*
X220834983Y-122499983D01*
X220866223Y-122474346D01*
X220901862Y-122455296D01*
X220940532Y-122443565D01*
X220986888Y-122439000D01*
X221638112Y-122439000D01*
X221684468Y-122443565D01*
G37*
G36*
X209657568Y-122443565D02*
G01*
X209696238Y-122455296D01*
X209731877Y-122474346D01*
X209763117Y-122499983D01*
X209788754Y-122531223D01*
X209807804Y-122566862D01*
X209819535Y-122605532D01*
X209824100Y-122651888D01*
X209824100Y-123728112D01*
X209819535Y-123774468D01*
X209807804Y-123813138D01*
X209788754Y-123848777D01*
X209763117Y-123880017D01*
X209731877Y-123905654D01*
X209696238Y-123924704D01*
X209657568Y-123936435D01*
X209611212Y-123941000D01*
X208959988Y-123941000D01*
X208913632Y-123936435D01*
X208874962Y-123924704D01*
X208839323Y-123905654D01*
X208808083Y-123880017D01*
X208782446Y-123848777D01*
X208763396Y-123813138D01*
X208751665Y-123774468D01*
X208747100Y-123728112D01*
X208747100Y-122651888D01*
X208751665Y-122605532D01*
X208763396Y-122566862D01*
X208782446Y-122531223D01*
X208808083Y-122499983D01*
X208839323Y-122474346D01*
X208874962Y-122455296D01*
X208913632Y-122443565D01*
X208959988Y-122439000D01*
X209611212Y-122439000D01*
X209657568Y-122443565D01*
G37*
G36*
X213399468Y-122443565D02*
G01*
X213438138Y-122455296D01*
X213473777Y-122474346D01*
X213505017Y-122499983D01*
X213530654Y-122531223D01*
X213549704Y-122566862D01*
X213561435Y-122605532D01*
X213566000Y-122651888D01*
X213566000Y-123728112D01*
X213561435Y-123774468D01*
X213549704Y-123813138D01*
X213530654Y-123848777D01*
X213505017Y-123880017D01*
X213473777Y-123905654D01*
X213438138Y-123924704D01*
X213399468Y-123936435D01*
X213353112Y-123941000D01*
X212701888Y-123941000D01*
X212655532Y-123936435D01*
X212616862Y-123924704D01*
X212581223Y-123905654D01*
X212549983Y-123880017D01*
X212524346Y-123848777D01*
X212505296Y-123813138D01*
X212493565Y-123774468D01*
X212489000Y-123728112D01*
X212489000Y-122651888D01*
X212493565Y-122605532D01*
X212505296Y-122566862D01*
X212524346Y-122531223D01*
X212549983Y-122499983D01*
X212581223Y-122474346D01*
X212616862Y-122455296D01*
X212655532Y-122443565D01*
X212701888Y-122439000D01*
X213353112Y-122439000D01*
X213399468Y-122443565D01*
G37*
G36*
X211524468Y-122443565D02*
G01*
X211563138Y-122455296D01*
X211598777Y-122474346D01*
X211630017Y-122499983D01*
X211655654Y-122531223D01*
X211674704Y-122566862D01*
X211686435Y-122605532D01*
X211691000Y-122651888D01*
X211691000Y-123728112D01*
X211686435Y-123774468D01*
X211674704Y-123813138D01*
X211655654Y-123848777D01*
X211630017Y-123880017D01*
X211598777Y-123905654D01*
X211563138Y-123924704D01*
X211524468Y-123936435D01*
X211478112Y-123941000D01*
X210826888Y-123941000D01*
X210780532Y-123936435D01*
X210741862Y-123924704D01*
X210706223Y-123905654D01*
X210674983Y-123880017D01*
X210649346Y-123848777D01*
X210630296Y-123813138D01*
X210618565Y-123774468D01*
X210614000Y-123728112D01*
X210614000Y-122651888D01*
X210618565Y-122605532D01*
X210630296Y-122566862D01*
X210649346Y-122531223D01*
X210674983Y-122499983D01*
X210706223Y-122474346D01*
X210741862Y-122455296D01*
X210780532Y-122443565D01*
X210826888Y-122439000D01*
X211478112Y-122439000D01*
X211524468Y-122443565D01*
G37*
G36*
X218479468Y-122443565D02*
G01*
X218518138Y-122455296D01*
X218553777Y-122474346D01*
X218585017Y-122499983D01*
X218610654Y-122531223D01*
X218629704Y-122566862D01*
X218641435Y-122605532D01*
X218646000Y-122651888D01*
X218646000Y-123728112D01*
X218641435Y-123774468D01*
X218629704Y-123813138D01*
X218610654Y-123848777D01*
X218585017Y-123880017D01*
X218553777Y-123905654D01*
X218518138Y-123924704D01*
X218479468Y-123936435D01*
X218433112Y-123941000D01*
X217781888Y-123941000D01*
X217735532Y-123936435D01*
X217696862Y-123924704D01*
X217661223Y-123905654D01*
X217629983Y-123880017D01*
X217604346Y-123848777D01*
X217585296Y-123813138D01*
X217573565Y-123774468D01*
X217569000Y-123728112D01*
X217569000Y-122651888D01*
X217573565Y-122605532D01*
X217585296Y-122566862D01*
X217604346Y-122531223D01*
X217629983Y-122499983D01*
X217661223Y-122474346D01*
X217696862Y-122455296D01*
X217735532Y-122443565D01*
X217781888Y-122439000D01*
X218433112Y-122439000D01*
X218479468Y-122443565D01*
G37*
G36*
X216604468Y-122443565D02*
G01*
X216643138Y-122455296D01*
X216678777Y-122474346D01*
X216710017Y-122499983D01*
X216735654Y-122531223D01*
X216754704Y-122566862D01*
X216766435Y-122605532D01*
X216771000Y-122651888D01*
X216771000Y-123728112D01*
X216766435Y-123774468D01*
X216754704Y-123813138D01*
X216735654Y-123848777D01*
X216710017Y-123880017D01*
X216678777Y-123905654D01*
X216643138Y-123924704D01*
X216604468Y-123936435D01*
X216558112Y-123941000D01*
X215906888Y-123941000D01*
X215860532Y-123936435D01*
X215821862Y-123924704D01*
X215786223Y-123905654D01*
X215754983Y-123880017D01*
X215729346Y-123848777D01*
X215710296Y-123813138D01*
X215698565Y-123774468D01*
X215694000Y-123728112D01*
X215694000Y-122651888D01*
X215698565Y-122605532D01*
X215710296Y-122566862D01*
X215729346Y-122531223D01*
X215754983Y-122499983D01*
X215786223Y-122474346D01*
X215821862Y-122455296D01*
X215860532Y-122443565D01*
X215906888Y-122439000D01*
X216558112Y-122439000D01*
X216604468Y-122443565D01*
G37*
G36*
X204583512Y-119753927D02*
G01*
X204732812Y-119783624D01*
X204896784Y-119851544D01*
X205044354Y-119950147D01*
X205169853Y-120075646D01*
X205268456Y-120223216D01*
X205336376Y-120387188D01*
X205371000Y-120561259D01*
X205371000Y-120738741D01*
X205336376Y-120912812D01*
X205268456Y-121076784D01*
X205169853Y-121224354D01*
X205044354Y-121349853D01*
X204896784Y-121448456D01*
X204732812Y-121516376D01*
X204583512Y-121546073D01*
X204558742Y-121551000D01*
X204381258Y-121551000D01*
X204356488Y-121546073D01*
X204207188Y-121516376D01*
X204043216Y-121448456D01*
X203895646Y-121349853D01*
X203770147Y-121224354D01*
X203671544Y-121076784D01*
X203603624Y-120912812D01*
X203569000Y-120738741D01*
X203569000Y-120561259D01*
X203603624Y-120387188D01*
X203671544Y-120223216D01*
X203770147Y-120075646D01*
X203895646Y-119950147D01*
X204043216Y-119851544D01*
X204207188Y-119783624D01*
X204356488Y-119753927D01*
X204381258Y-119749000D01*
X204558742Y-119749000D01*
X204583512Y-119753927D01*
G37*
G36*
X227443512Y-119753927D02*
G01*
X227592812Y-119783624D01*
X227756784Y-119851544D01*
X227904354Y-119950147D01*
X228029853Y-120075646D01*
X228128456Y-120223216D01*
X228196376Y-120387188D01*
X228231000Y-120561259D01*
X228231000Y-120738741D01*
X228196376Y-120912812D01*
X228128456Y-121076784D01*
X228029853Y-121224354D01*
X227904354Y-121349853D01*
X227756784Y-121448456D01*
X227592812Y-121516376D01*
X227443512Y-121546073D01*
X227418742Y-121551000D01*
X227241258Y-121551000D01*
X227216488Y-121546073D01*
X227067188Y-121516376D01*
X226903216Y-121448456D01*
X226755646Y-121349853D01*
X226630147Y-121224354D01*
X226531544Y-121076784D01*
X226463624Y-120912812D01*
X226429000Y-120738741D01*
X226429000Y-120561259D01*
X226463624Y-120387188D01*
X226531544Y-120223216D01*
X226630147Y-120075646D01*
X226755646Y-119950147D01*
X226903216Y-119851544D01*
X227067188Y-119783624D01*
X227216488Y-119753927D01*
X227241258Y-119749000D01*
X227418742Y-119749000D01*
X227443512Y-119753927D01*
G37*
G36*
X217209468Y-117998565D02*
G01*
X217248138Y-118010296D01*
X217283777Y-118029346D01*
X217315017Y-118054983D01*
X217340654Y-118086223D01*
X217359704Y-118121862D01*
X217371435Y-118160532D01*
X217376000Y-118206888D01*
X217376000Y-119283112D01*
X217371435Y-119329468D01*
X217359704Y-119368138D01*
X217340654Y-119403777D01*
X217315017Y-119435017D01*
X217283777Y-119460654D01*
X217248138Y-119479704D01*
X217209468Y-119491435D01*
X217163112Y-119496000D01*
X216511888Y-119496000D01*
X216465532Y-119491435D01*
X216426862Y-119479704D01*
X216391223Y-119460654D01*
X216359983Y-119435017D01*
X216334346Y-119403777D01*
X216315296Y-119368138D01*
X216303565Y-119329468D01*
X216299000Y-119283112D01*
X216299000Y-118206888D01*
X216303565Y-118160532D01*
X216315296Y-118121862D01*
X216334346Y-118086223D01*
X216359983Y-118054983D01*
X216391223Y-118029346D01*
X216426862Y-118010296D01*
X216465532Y-117998565D01*
X216511888Y-117994000D01*
X217163112Y-117994000D01*
X217209468Y-117998565D01*
G37*
G36*
X215334468Y-117998565D02*
G01*
X215373138Y-118010296D01*
X215408777Y-118029346D01*
X215440017Y-118054983D01*
X215465654Y-118086223D01*
X215484704Y-118121862D01*
X215496435Y-118160532D01*
X215501000Y-118206888D01*
X215501000Y-119283112D01*
X215496435Y-119329468D01*
X215484704Y-119368138D01*
X215465654Y-119403777D01*
X215440017Y-119435017D01*
X215408777Y-119460654D01*
X215373138Y-119479704D01*
X215334468Y-119491435D01*
X215288112Y-119496000D01*
X214636888Y-119496000D01*
X214590532Y-119491435D01*
X214551862Y-119479704D01*
X214516223Y-119460654D01*
X214484983Y-119435017D01*
X214459346Y-119403777D01*
X214440296Y-119368138D01*
X214428565Y-119329468D01*
X214424000Y-119283112D01*
X214424000Y-118206888D01*
X214428565Y-118160532D01*
X214440296Y-118121862D01*
X214459346Y-118086223D01*
X214484983Y-118054983D01*
X214516223Y-118029346D01*
X214551862Y-118010296D01*
X214590532Y-117998565D01*
X214636888Y-117994000D01*
X215288112Y-117994000D01*
X215334468Y-117998565D01*
G37*
G36*
X204583512Y-117213927D02*
G01*
X204732812Y-117243624D01*
X204896784Y-117311544D01*
X205044354Y-117410147D01*
X205169853Y-117535646D01*
X205268456Y-117683216D01*
X205336376Y-117847188D01*
X205371000Y-118021259D01*
X205371000Y-118198741D01*
X205336376Y-118372812D01*
X205268456Y-118536784D01*
X205169853Y-118684354D01*
X205044354Y-118809853D01*
X204896784Y-118908456D01*
X204732812Y-118976376D01*
X204583512Y-119006073D01*
X204558742Y-119011000D01*
X204381258Y-119011000D01*
X204356488Y-119006073D01*
X204207188Y-118976376D01*
X204043216Y-118908456D01*
X203895646Y-118809853D01*
X203770147Y-118684354D01*
X203671544Y-118536784D01*
X203603624Y-118372812D01*
X203569000Y-118198741D01*
X203569000Y-118021259D01*
X203603624Y-117847188D01*
X203671544Y-117683216D01*
X203770147Y-117535646D01*
X203895646Y-117410147D01*
X204043216Y-117311544D01*
X204207188Y-117243624D01*
X204356488Y-117213927D01*
X204381258Y-117209000D01*
X204558742Y-117209000D01*
X204583512Y-117213927D01*
G37*
G36*
X227443512Y-117213927D02*
G01*
X227592812Y-117243624D01*
X227756784Y-117311544D01*
X227904354Y-117410147D01*
X228029853Y-117535646D01*
X228128456Y-117683216D01*
X228196376Y-117847188D01*
X228231000Y-118021259D01*
X228231000Y-118198741D01*
X228196376Y-118372812D01*
X228128456Y-118536784D01*
X228029853Y-118684354D01*
X227904354Y-118809853D01*
X227756784Y-118908456D01*
X227592812Y-118976376D01*
X227443512Y-119006073D01*
X227418742Y-119011000D01*
X227241258Y-119011000D01*
X227216488Y-119006073D01*
X227067188Y-118976376D01*
X226903216Y-118908456D01*
X226755646Y-118809853D01*
X226630147Y-118684354D01*
X226531544Y-118536784D01*
X226463624Y-118372812D01*
X226429000Y-118198741D01*
X226429000Y-118021259D01*
X226463624Y-117847188D01*
X226531544Y-117683216D01*
X226630147Y-117535646D01*
X226755646Y-117410147D01*
X226903216Y-117311544D01*
X227067188Y-117243624D01*
X227216488Y-117213927D01*
X227241258Y-117209000D01*
X227418742Y-117209000D01*
X227443512Y-117213927D01*
G37*
G36*
X210134468Y-117878565D02*
G01*
X210173138Y-117890296D01*
X210208777Y-117909346D01*
X210240017Y-117934983D01*
X210265654Y-117966223D01*
X210284704Y-118001862D01*
X210296435Y-118040532D01*
X210301000Y-118086888D01*
X210301000Y-118738112D01*
X210296435Y-118784468D01*
X210284704Y-118823138D01*
X210265654Y-118858777D01*
X210240017Y-118890017D01*
X210208777Y-118915654D01*
X210173138Y-118934704D01*
X210134468Y-118946435D01*
X210088112Y-118951000D01*
X209011888Y-118951000D01*
X208965532Y-118946435D01*
X208926862Y-118934704D01*
X208891223Y-118915654D01*
X208859983Y-118890017D01*
X208834346Y-118858777D01*
X208815296Y-118823138D01*
X208803565Y-118784468D01*
X208799000Y-118738112D01*
X208799000Y-118086888D01*
X208803565Y-118040532D01*
X208815296Y-118001862D01*
X208834346Y-117966223D01*
X208859983Y-117934983D01*
X208891223Y-117909346D01*
X208926862Y-117890296D01*
X208965532Y-117878565D01*
X209011888Y-117874000D01*
X210088112Y-117874000D01*
X210134468Y-117878565D01*
G37*
G36*
X222834468Y-117878565D02*
G01*
X222873138Y-117890296D01*
X222908777Y-117909346D01*
X222940017Y-117934983D01*
X222965654Y-117966223D01*
X222984704Y-118001862D01*
X222996435Y-118040532D01*
X223001000Y-118086888D01*
X223001000Y-118738112D01*
X222996435Y-118784468D01*
X222984704Y-118823138D01*
X222965654Y-118858777D01*
X222940017Y-118890017D01*
X222908777Y-118915654D01*
X222873138Y-118934704D01*
X222834468Y-118946435D01*
X222788112Y-118951000D01*
X221711888Y-118951000D01*
X221665532Y-118946435D01*
X221626862Y-118934704D01*
X221591223Y-118915654D01*
X221559983Y-118890017D01*
X221534346Y-118858777D01*
X221515296Y-118823138D01*
X221503565Y-118784468D01*
X221499000Y-118738112D01*
X221499000Y-118086888D01*
X221503565Y-118040532D01*
X221515296Y-118001862D01*
X221534346Y-117966223D01*
X221559983Y-117934983D01*
X221591223Y-117909346D01*
X221626862Y-117890296D01*
X221665532Y-117878565D01*
X221711888Y-117874000D01*
X222788112Y-117874000D01*
X222834468Y-117878565D01*
G37*
G36*
X210134468Y-116003565D02*
G01*
X210173138Y-116015296D01*
X210208777Y-116034346D01*
X210240017Y-116059983D01*
X210265654Y-116091223D01*
X210284704Y-116126862D01*
X210296435Y-116165532D01*
X210301000Y-116211888D01*
X210301000Y-116863112D01*
X210296435Y-116909468D01*
X210284704Y-116948138D01*
X210265654Y-116983777D01*
X210240017Y-117015017D01*
X210208777Y-117040654D01*
X210173138Y-117059704D01*
X210134468Y-117071435D01*
X210088112Y-117076000D01*
X209011888Y-117076000D01*
X208965532Y-117071435D01*
X208926862Y-117059704D01*
X208891223Y-117040654D01*
X208859983Y-117015017D01*
X208834346Y-116983777D01*
X208815296Y-116948138D01*
X208803565Y-116909468D01*
X208799000Y-116863112D01*
X208799000Y-116211888D01*
X208803565Y-116165532D01*
X208815296Y-116126862D01*
X208834346Y-116091223D01*
X208859983Y-116059983D01*
X208891223Y-116034346D01*
X208926862Y-116015296D01*
X208965532Y-116003565D01*
X209011888Y-115999000D01*
X210088112Y-115999000D01*
X210134468Y-116003565D01*
G37*
G36*
X222834468Y-116003565D02*
G01*
X222873138Y-116015296D01*
X222908777Y-116034346D01*
X222940017Y-116059983D01*
X222965654Y-116091223D01*
X222984704Y-116126862D01*
X222996435Y-116165532D01*
X223001000Y-116211888D01*
X223001000Y-116863112D01*
X222996435Y-116909468D01*
X222984704Y-116948138D01*
X222965654Y-116983777D01*
X222940017Y-117015017D01*
X222908777Y-117040654D01*
X222873138Y-117059704D01*
X222834468Y-117071435D01*
X222788112Y-117076000D01*
X221711888Y-117076000D01*
X221665532Y-117071435D01*
X221626862Y-117059704D01*
X221591223Y-117040654D01*
X221559983Y-117015017D01*
X221534346Y-116983777D01*
X221515296Y-116948138D01*
X221503565Y-116909468D01*
X221499000Y-116863112D01*
X221499000Y-116211888D01*
X221503565Y-116165532D01*
X221515296Y-116126862D01*
X221534346Y-116091223D01*
X221559983Y-116059983D01*
X221591223Y-116034346D01*
X221626862Y-116015296D01*
X221665532Y-116003565D01*
X221711888Y-115999000D01*
X222788112Y-115999000D01*
X222834468Y-116003565D01*
G37*
G36*
X204583512Y-114673927D02*
G01*
X204732812Y-114703624D01*
X204896784Y-114771544D01*
X205044354Y-114870147D01*
X205169853Y-114995646D01*
X205268456Y-115143216D01*
X205336376Y-115307188D01*
X205371000Y-115481259D01*
X205371000Y-115658741D01*
X205336376Y-115832812D01*
X205268456Y-115996784D01*
X205169853Y-116144354D01*
X205044354Y-116269853D01*
X204896784Y-116368456D01*
X204732812Y-116436376D01*
X204583512Y-116466073D01*
X204558742Y-116471000D01*
X204381258Y-116471000D01*
X204356488Y-116466073D01*
X204207188Y-116436376D01*
X204043216Y-116368456D01*
X203895646Y-116269853D01*
X203770147Y-116144354D01*
X203671544Y-115996784D01*
X203603624Y-115832812D01*
X203569000Y-115658741D01*
X203569000Y-115481259D01*
X203603624Y-115307188D01*
X203671544Y-115143216D01*
X203770147Y-114995646D01*
X203895646Y-114870147D01*
X204043216Y-114771544D01*
X204207188Y-114703624D01*
X204356488Y-114673927D01*
X204381258Y-114669000D01*
X204558742Y-114669000D01*
X204583512Y-114673927D01*
G37*
G36*
X227443512Y-114673927D02*
G01*
X227592812Y-114703624D01*
X227756784Y-114771544D01*
X227904354Y-114870147D01*
X228029853Y-114995646D01*
X228128456Y-115143216D01*
X228196376Y-115307188D01*
X228231000Y-115481259D01*
X228231000Y-115658741D01*
X228196376Y-115832812D01*
X228128456Y-115996784D01*
X228029853Y-116144354D01*
X227904354Y-116269853D01*
X227756784Y-116368456D01*
X227592812Y-116436376D01*
X227443512Y-116466073D01*
X227418742Y-116471000D01*
X227241258Y-116471000D01*
X227216488Y-116466073D01*
X227067188Y-116436376D01*
X226903216Y-116368456D01*
X226755646Y-116269853D01*
X226630147Y-116144354D01*
X226531544Y-115996784D01*
X226463624Y-115832812D01*
X226429000Y-115658741D01*
X226429000Y-115481259D01*
X226463624Y-115307188D01*
X226531544Y-115143216D01*
X226630147Y-114995646D01*
X226755646Y-114870147D01*
X226903216Y-114771544D01*
X227067188Y-114703624D01*
X227216488Y-114673927D01*
X227241258Y-114669000D01*
X227418742Y-114669000D01*
X227443512Y-114673927D01*
G37*
G36*
X214359928Y-113951764D02*
G01*
X214381009Y-113958160D01*
X214400445Y-113968548D01*
X214417476Y-113982524D01*
X214431452Y-113999555D01*
X214441840Y-114018991D01*
X214448236Y-114040072D01*
X214451000Y-114068140D01*
X214451000Y-114531860D01*
X214448236Y-114559928D01*
X214441840Y-114581009D01*
X214431452Y-114600445D01*
X214417476Y-114617476D01*
X214400445Y-114631452D01*
X214381009Y-114641840D01*
X214359928Y-114648236D01*
X214331860Y-114651000D01*
X212518140Y-114651000D01*
X212490072Y-114648236D01*
X212468991Y-114641840D01*
X212449555Y-114631452D01*
X212432524Y-114617476D01*
X212418548Y-114600445D01*
X212408160Y-114581009D01*
X212401764Y-114559928D01*
X212399000Y-114531860D01*
X212399000Y-114068140D01*
X212401764Y-114040072D01*
X212408160Y-114018991D01*
X212418548Y-113999555D01*
X212432524Y-113982524D01*
X212449555Y-113968548D01*
X212468991Y-113958160D01*
X212490072Y-113951764D01*
X212518140Y-113949000D01*
X214331860Y-113949000D01*
X214359928Y-113951764D01*
G37*
G36*
X219309928Y-113951764D02*
G01*
X219331009Y-113958160D01*
X219350445Y-113968548D01*
X219367476Y-113982524D01*
X219381452Y-113999555D01*
X219391840Y-114018991D01*
X219398236Y-114040072D01*
X219401000Y-114068140D01*
X219401000Y-114531860D01*
X219398236Y-114559928D01*
X219391840Y-114581009D01*
X219381452Y-114600445D01*
X219367476Y-114617476D01*
X219350445Y-114631452D01*
X219331009Y-114641840D01*
X219309928Y-114648236D01*
X219281860Y-114651000D01*
X217468140Y-114651000D01*
X217440072Y-114648236D01*
X217418991Y-114641840D01*
X217399555Y-114631452D01*
X217382524Y-114617476D01*
X217368548Y-114600445D01*
X217358160Y-114581009D01*
X217351764Y-114559928D01*
X217349000Y-114531860D01*
X217349000Y-114068140D01*
X217351764Y-114040072D01*
X217358160Y-114018991D01*
X217368548Y-113999555D01*
X217382524Y-113982524D01*
X217399555Y-113968548D01*
X217418991Y-113958160D01*
X217440072Y-113951764D01*
X217468140Y-113949000D01*
X219281860Y-113949000D01*
X219309928Y-113951764D01*
G37*
G36*
X227443512Y-112133927D02*
G01*
X227592812Y-112163624D01*
X227756784Y-112231544D01*
X227904354Y-112330147D01*
X228029853Y-112455646D01*
X228128456Y-112603216D01*
X228196376Y-112767188D01*
X228231000Y-112941259D01*
X228231000Y-113118741D01*
X228196376Y-113292812D01*
X228128456Y-113456784D01*
X228029853Y-113604354D01*
X227904354Y-113729853D01*
X227756784Y-113828456D01*
X227592812Y-113896376D01*
X227443512Y-113926073D01*
X227418742Y-113931000D01*
X227241258Y-113931000D01*
X227216488Y-113926073D01*
X227067188Y-113896376D01*
X226903216Y-113828456D01*
X226755646Y-113729853D01*
X226630147Y-113604354D01*
X226531544Y-113456784D01*
X226463624Y-113292812D01*
X226429000Y-113118741D01*
X226429000Y-112941259D01*
X226463624Y-112767188D01*
X226531544Y-112603216D01*
X226630147Y-112455646D01*
X226755646Y-112330147D01*
X226903216Y-112231544D01*
X227067188Y-112163624D01*
X227216488Y-112133927D01*
X227241258Y-112129000D01*
X227418742Y-112129000D01*
X227443512Y-112133927D01*
G37*
G36*
X204583512Y-112133927D02*
G01*
X204732812Y-112163624D01*
X204896784Y-112231544D01*
X205044354Y-112330147D01*
X205169853Y-112455646D01*
X205268456Y-112603216D01*
X205336376Y-112767188D01*
X205371000Y-112941259D01*
X205371000Y-113118741D01*
X205336376Y-113292812D01*
X205268456Y-113456784D01*
X205169853Y-113604354D01*
X205044354Y-113729853D01*
X204896784Y-113828456D01*
X204732812Y-113896376D01*
X204583512Y-113926073D01*
X204558742Y-113931000D01*
X204381258Y-113931000D01*
X204356488Y-113926073D01*
X204207188Y-113896376D01*
X204043216Y-113828456D01*
X203895646Y-113729853D01*
X203770147Y-113604354D01*
X203671544Y-113456784D01*
X203603624Y-113292812D01*
X203569000Y-113118741D01*
X203569000Y-112941259D01*
X203603624Y-112767188D01*
X203671544Y-112603216D01*
X203770147Y-112455646D01*
X203895646Y-112330147D01*
X204043216Y-112231544D01*
X204207188Y-112163624D01*
X204356488Y-112133927D01*
X204381258Y-112129000D01*
X204558742Y-112129000D01*
X204583512Y-112133927D01*
G37*
G36*
X210134468Y-112798565D02*
G01*
X210173138Y-112810296D01*
X210208777Y-112829346D01*
X210240017Y-112854983D01*
X210265654Y-112886223D01*
X210284704Y-112921862D01*
X210296435Y-112960532D01*
X210301000Y-113006888D01*
X210301000Y-113658112D01*
X210296435Y-113704468D01*
X210284704Y-113743138D01*
X210265654Y-113778777D01*
X210240017Y-113810017D01*
X210208777Y-113835654D01*
X210173138Y-113854704D01*
X210134468Y-113866435D01*
X210088112Y-113871000D01*
X209011888Y-113871000D01*
X208965532Y-113866435D01*
X208926862Y-113854704D01*
X208891223Y-113835654D01*
X208859983Y-113810017D01*
X208834346Y-113778777D01*
X208815296Y-113743138D01*
X208803565Y-113704468D01*
X208799000Y-113658112D01*
X208799000Y-113006888D01*
X208803565Y-112960532D01*
X208815296Y-112921862D01*
X208834346Y-112886223D01*
X208859983Y-112854983D01*
X208891223Y-112829346D01*
X208926862Y-112810296D01*
X208965532Y-112798565D01*
X209011888Y-112794000D01*
X210088112Y-112794000D01*
X210134468Y-112798565D01*
G37*
G36*
X214359928Y-112681764D02*
G01*
X214381009Y-112688160D01*
X214400445Y-112698548D01*
X214417476Y-112712524D01*
X214431452Y-112729555D01*
X214441840Y-112748991D01*
X214448236Y-112770072D01*
X214451000Y-112798140D01*
X214451000Y-113261860D01*
X214448236Y-113289928D01*
X214441840Y-113311009D01*
X214431452Y-113330445D01*
X214417476Y-113347476D01*
X214400445Y-113361452D01*
X214381009Y-113371840D01*
X214359928Y-113378236D01*
X214331860Y-113381000D01*
X212518140Y-113381000D01*
X212490072Y-113378236D01*
X212468991Y-113371840D01*
X212449555Y-113361452D01*
X212432524Y-113347476D01*
X212418548Y-113330445D01*
X212408160Y-113311009D01*
X212401764Y-113289928D01*
X212399000Y-113261860D01*
X212399000Y-112798140D01*
X212401764Y-112770072D01*
X212408160Y-112748991D01*
X212418548Y-112729555D01*
X212432524Y-112712524D01*
X212449555Y-112698548D01*
X212468991Y-112688160D01*
X212490072Y-112681764D01*
X212518140Y-112679000D01*
X214331860Y-112679000D01*
X214359928Y-112681764D01*
G37*
G36*
X219309928Y-112681764D02*
G01*
X219331009Y-112688160D01*
X219350445Y-112698548D01*
X219367476Y-112712524D01*
X219381452Y-112729555D01*
X219391840Y-112748991D01*
X219398236Y-112770072D01*
X219401000Y-112798140D01*
X219401000Y-113261860D01*
X219398236Y-113289928D01*
X219391840Y-113311009D01*
X219381452Y-113330445D01*
X219367476Y-113347476D01*
X219350445Y-113361452D01*
X219331009Y-113371840D01*
X219309928Y-113378236D01*
X219281860Y-113381000D01*
X217468140Y-113381000D01*
X217440072Y-113378236D01*
X217418991Y-113371840D01*
X217399555Y-113361452D01*
X217382524Y-113347476D01*
X217368548Y-113330445D01*
X217358160Y-113311009D01*
X217351764Y-113289928D01*
X217349000Y-113261860D01*
X217349000Y-112798140D01*
X217351764Y-112770072D01*
X217358160Y-112748991D01*
X217368548Y-112729555D01*
X217382524Y-112712524D01*
X217399555Y-112698548D01*
X217418991Y-112688160D01*
X217440072Y-112681764D01*
X217468140Y-112679000D01*
X219281860Y-112679000D01*
X219309928Y-112681764D01*
G37*
G36*
X214359928Y-111411764D02*
G01*
X214381009Y-111418160D01*
X214400445Y-111428548D01*
X214417476Y-111442524D01*
X214431452Y-111459555D01*
X214441840Y-111478991D01*
X214448236Y-111500072D01*
X214451000Y-111528140D01*
X214451000Y-111991860D01*
X214448236Y-112019928D01*
X214441840Y-112041009D01*
X214431452Y-112060445D01*
X214417476Y-112077476D01*
X214400445Y-112091452D01*
X214381009Y-112101840D01*
X214359928Y-112108236D01*
X214331860Y-112111000D01*
X212518140Y-112111000D01*
X212490072Y-112108236D01*
X212468991Y-112101840D01*
X212449555Y-112091452D01*
X212432524Y-112077476D01*
X212418548Y-112060445D01*
X212408160Y-112041009D01*
X212401764Y-112019928D01*
X212399000Y-111991860D01*
X212399000Y-111528140D01*
X212401764Y-111500072D01*
X212408160Y-111478991D01*
X212418548Y-111459555D01*
X212432524Y-111442524D01*
X212449555Y-111428548D01*
X212468991Y-111418160D01*
X212490072Y-111411764D01*
X212518140Y-111409000D01*
X214331860Y-111409000D01*
X214359928Y-111411764D01*
G37*
G36*
X219309928Y-111411764D02*
G01*
X219331009Y-111418160D01*
X219350445Y-111428548D01*
X219367476Y-111442524D01*
X219381452Y-111459555D01*
X219391840Y-111478991D01*
X219398236Y-111500072D01*
X219401000Y-111528140D01*
X219401000Y-111991860D01*
X219398236Y-112019928D01*
X219391840Y-112041009D01*
X219381452Y-112060445D01*
X219367476Y-112077476D01*
X219350445Y-112091452D01*
X219331009Y-112101840D01*
X219309928Y-112108236D01*
X219281860Y-112111000D01*
X217468140Y-112111000D01*
X217440072Y-112108236D01*
X217418991Y-112101840D01*
X217399555Y-112091452D01*
X217382524Y-112077476D01*
X217368548Y-112060445D01*
X217358160Y-112041009D01*
X217351764Y-112019928D01*
X217349000Y-111991860D01*
X217349000Y-111528140D01*
X217351764Y-111500072D01*
X217358160Y-111478991D01*
X217368548Y-111459555D01*
X217382524Y-111442524D01*
X217399555Y-111428548D01*
X217418991Y-111418160D01*
X217440072Y-111411764D01*
X217468140Y-111409000D01*
X219281860Y-111409000D01*
X219309928Y-111411764D01*
G37*
G36*
X210134468Y-110923565D02*
G01*
X210173138Y-110935296D01*
X210208777Y-110954346D01*
X210240017Y-110979983D01*
X210265654Y-111011223D01*
X210284704Y-111046862D01*
X210296435Y-111085532D01*
X210301000Y-111131888D01*
X210301000Y-111783112D01*
X210296435Y-111829468D01*
X210284704Y-111868138D01*
X210265654Y-111903777D01*
X210240017Y-111935017D01*
X210208777Y-111960654D01*
X210173138Y-111979704D01*
X210134468Y-111991435D01*
X210088112Y-111996000D01*
X209011888Y-111996000D01*
X208965532Y-111991435D01*
X208926862Y-111979704D01*
X208891223Y-111960654D01*
X208859983Y-111935017D01*
X208834346Y-111903777D01*
X208815296Y-111868138D01*
X208803565Y-111829468D01*
X208799000Y-111783112D01*
X208799000Y-111131888D01*
X208803565Y-111085532D01*
X208815296Y-111046862D01*
X208834346Y-111011223D01*
X208859983Y-110979983D01*
X208891223Y-110954346D01*
X208926862Y-110935296D01*
X208965532Y-110923565D01*
X209011888Y-110919000D01*
X210088112Y-110919000D01*
X210134468Y-110923565D01*
G37*
G36*
X227443512Y-109593927D02*
G01*
X227592812Y-109623624D01*
X227756784Y-109691544D01*
X227904354Y-109790147D01*
X228029853Y-109915646D01*
X228128456Y-110063216D01*
X228196376Y-110227188D01*
X228231000Y-110401259D01*
X228231000Y-110578741D01*
X228196376Y-110752812D01*
X228128456Y-110916784D01*
X228029853Y-111064354D01*
X227904354Y-111189853D01*
X227756784Y-111288456D01*
X227592812Y-111356376D01*
X227443512Y-111386073D01*
X227418742Y-111391000D01*
X227241258Y-111391000D01*
X227216488Y-111386073D01*
X227067188Y-111356376D01*
X226903216Y-111288456D01*
X226755646Y-111189853D01*
X226630147Y-111064354D01*
X226531544Y-110916784D01*
X226463624Y-110752812D01*
X226429000Y-110578741D01*
X226429000Y-110401259D01*
X226463624Y-110227188D01*
X226531544Y-110063216D01*
X226630147Y-109915646D01*
X226755646Y-109790147D01*
X226903216Y-109691544D01*
X227067188Y-109623624D01*
X227216488Y-109593927D01*
X227241258Y-109589000D01*
X227418742Y-109589000D01*
X227443512Y-109593927D01*
G37*
G36*
X204583512Y-109593927D02*
G01*
X204732812Y-109623624D01*
X204896784Y-109691544D01*
X205044354Y-109790147D01*
X205169853Y-109915646D01*
X205268456Y-110063216D01*
X205336376Y-110227188D01*
X205371000Y-110401259D01*
X205371000Y-110578741D01*
X205336376Y-110752812D01*
X205268456Y-110916784D01*
X205169853Y-111064354D01*
X205044354Y-111189853D01*
X204896784Y-111288456D01*
X204732812Y-111356376D01*
X204583512Y-111386073D01*
X204558742Y-111391000D01*
X204381258Y-111391000D01*
X204356488Y-111386073D01*
X204207188Y-111356376D01*
X204043216Y-111288456D01*
X203895646Y-111189853D01*
X203770147Y-111064354D01*
X203671544Y-110916784D01*
X203603624Y-110752812D01*
X203569000Y-110578741D01*
X203569000Y-110401259D01*
X203603624Y-110227188D01*
X203671544Y-110063216D01*
X203770147Y-109915646D01*
X203895646Y-109790147D01*
X204043216Y-109691544D01*
X204207188Y-109623624D01*
X204356488Y-109593927D01*
X204381258Y-109589000D01*
X204558742Y-109589000D01*
X204583512Y-109593927D01*
G37*
G36*
X219309928Y-110141764D02*
G01*
X219331009Y-110148160D01*
X219350445Y-110158548D01*
X219367476Y-110172524D01*
X219381452Y-110189555D01*
X219391840Y-110208991D01*
X219398236Y-110230072D01*
X219401000Y-110258140D01*
X219401000Y-110721860D01*
X219398236Y-110749928D01*
X219391840Y-110771009D01*
X219381452Y-110790445D01*
X219367476Y-110807476D01*
X219350445Y-110821452D01*
X219331009Y-110831840D01*
X219309928Y-110838236D01*
X219281860Y-110841000D01*
X217468140Y-110841000D01*
X217440072Y-110838236D01*
X217418991Y-110831840D01*
X217399555Y-110821452D01*
X217382524Y-110807476D01*
X217368548Y-110790445D01*
X217358160Y-110771009D01*
X217351764Y-110749928D01*
X217349000Y-110721860D01*
X217349000Y-110258140D01*
X217351764Y-110230072D01*
X217358160Y-110208991D01*
X217368548Y-110189555D01*
X217382524Y-110172524D01*
X217399555Y-110158548D01*
X217418991Y-110148160D01*
X217440072Y-110141764D01*
X217468140Y-110139000D01*
X219281860Y-110139000D01*
X219309928Y-110141764D01*
G37*
G36*
X214359928Y-110141764D02*
G01*
X214381009Y-110148160D01*
X214400445Y-110158548D01*
X214417476Y-110172524D01*
X214431452Y-110189555D01*
X214441840Y-110208991D01*
X214448236Y-110230072D01*
X214451000Y-110258140D01*
X214451000Y-110721860D01*
X214448236Y-110749928D01*
X214441840Y-110771009D01*
X214431452Y-110790445D01*
X214417476Y-110807476D01*
X214400445Y-110821452D01*
X214381009Y-110831840D01*
X214359928Y-110838236D01*
X214331860Y-110841000D01*
X212518140Y-110841000D01*
X212490072Y-110838236D01*
X212468991Y-110831840D01*
X212449555Y-110821452D01*
X212432524Y-110807476D01*
X212418548Y-110790445D01*
X212408160Y-110771009D01*
X212401764Y-110749928D01*
X212399000Y-110721860D01*
X212399000Y-110258140D01*
X212401764Y-110230072D01*
X212408160Y-110208991D01*
X212418548Y-110189555D01*
X212432524Y-110172524D01*
X212449555Y-110158548D01*
X212468991Y-110148160D01*
X212490072Y-110141764D01*
X212518140Y-110139000D01*
X214331860Y-110139000D01*
X214359928Y-110141764D01*
G37*
G36*
X204583512Y-107053927D02*
G01*
X204732812Y-107083624D01*
X204896784Y-107151544D01*
X205044354Y-107250147D01*
X205169853Y-107375646D01*
X205268456Y-107523216D01*
X205336376Y-107687188D01*
X205371000Y-107861259D01*
X205371000Y-108038741D01*
X205336376Y-108212812D01*
X205268456Y-108376784D01*
X205169853Y-108524354D01*
X205044354Y-108649853D01*
X204896784Y-108748456D01*
X204732812Y-108816376D01*
X204583512Y-108846073D01*
X204558742Y-108851000D01*
X204381258Y-108851000D01*
X204356488Y-108846073D01*
X204207188Y-108816376D01*
X204043216Y-108748456D01*
X203895646Y-108649853D01*
X203770147Y-108524354D01*
X203671544Y-108376784D01*
X203603624Y-108212812D01*
X203569000Y-108038741D01*
X203569000Y-107861259D01*
X203603624Y-107687188D01*
X203671544Y-107523216D01*
X203770147Y-107375646D01*
X203895646Y-107250147D01*
X204043216Y-107151544D01*
X204207188Y-107083624D01*
X204356488Y-107053927D01*
X204381258Y-107049000D01*
X204558742Y-107049000D01*
X204583512Y-107053927D01*
G37*
G36*
X227443512Y-107053927D02*
G01*
X227592812Y-107083624D01*
X227756784Y-107151544D01*
X227904354Y-107250147D01*
X228029853Y-107375646D01*
X228128456Y-107523216D01*
X228196376Y-107687188D01*
X228231000Y-107861259D01*
X228231000Y-108038741D01*
X228196376Y-108212812D01*
X228128456Y-108376784D01*
X228029853Y-108524354D01*
X227904354Y-108649853D01*
X227756784Y-108748456D01*
X227592812Y-108816376D01*
X227443512Y-108846073D01*
X227418742Y-108851000D01*
X227241258Y-108851000D01*
X227216488Y-108846073D01*
X227067188Y-108816376D01*
X226903216Y-108748456D01*
X226755646Y-108649853D01*
X226630147Y-108524354D01*
X226531544Y-108376784D01*
X226463624Y-108212812D01*
X226429000Y-108038741D01*
X226429000Y-107861259D01*
X226463624Y-107687188D01*
X226531544Y-107523216D01*
X226630147Y-107375646D01*
X226755646Y-107250147D01*
X226903216Y-107151544D01*
X227067188Y-107083624D01*
X227216488Y-107053927D01*
X227241258Y-107049000D01*
X227418742Y-107049000D01*
X227443512Y-107053927D01*
G37*
G36*
X222834468Y-107718565D02*
G01*
X222873138Y-107730296D01*
X222908777Y-107749346D01*
X222940017Y-107774983D01*
X222965654Y-107806223D01*
X222984704Y-107841862D01*
X222996435Y-107880532D01*
X223001000Y-107926888D01*
X223001000Y-108578112D01*
X222996435Y-108624468D01*
X222984704Y-108663138D01*
X222965654Y-108698777D01*
X222940017Y-108730017D01*
X222908777Y-108755654D01*
X222873138Y-108774704D01*
X222834468Y-108786435D01*
X222788112Y-108791000D01*
X221711888Y-108791000D01*
X221665532Y-108786435D01*
X221626862Y-108774704D01*
X221591223Y-108755654D01*
X221559983Y-108730017D01*
X221534346Y-108698777D01*
X221515296Y-108663138D01*
X221503565Y-108624468D01*
X221499000Y-108578112D01*
X221499000Y-107926888D01*
X221503565Y-107880532D01*
X221515296Y-107841862D01*
X221534346Y-107806223D01*
X221559983Y-107774983D01*
X221591223Y-107749346D01*
X221626862Y-107730296D01*
X221665532Y-107718565D01*
X221711888Y-107714000D01*
X222788112Y-107714000D01*
X222834468Y-107718565D01*
G37*
G36*
X210134468Y-107718565D02*
G01*
X210173138Y-107730296D01*
X210208777Y-107749346D01*
X210240017Y-107774983D01*
X210265654Y-107806223D01*
X210284704Y-107841862D01*
X210296435Y-107880532D01*
X210301000Y-107926888D01*
X210301000Y-108578112D01*
X210296435Y-108624468D01*
X210284704Y-108663138D01*
X210265654Y-108698777D01*
X210240017Y-108730017D01*
X210208777Y-108755654D01*
X210173138Y-108774704D01*
X210134468Y-108786435D01*
X210088112Y-108791000D01*
X209011888Y-108791000D01*
X208965532Y-108786435D01*
X208926862Y-108774704D01*
X208891223Y-108755654D01*
X208859983Y-108730017D01*
X208834346Y-108698777D01*
X208815296Y-108663138D01*
X208803565Y-108624468D01*
X208799000Y-108578112D01*
X208799000Y-107926888D01*
X208803565Y-107880532D01*
X208815296Y-107841862D01*
X208834346Y-107806223D01*
X208859983Y-107774983D01*
X208891223Y-107749346D01*
X208926862Y-107730296D01*
X208965532Y-107718565D01*
X209011888Y-107714000D01*
X210088112Y-107714000D01*
X210134468Y-107718565D01*
G37*
G36*
X210134468Y-105843565D02*
G01*
X210173138Y-105855296D01*
X210208777Y-105874346D01*
X210240017Y-105899983D01*
X210265654Y-105931223D01*
X210284704Y-105966862D01*
X210296435Y-106005532D01*
X210301000Y-106051888D01*
X210301000Y-106703112D01*
X210296435Y-106749468D01*
X210284704Y-106788138D01*
X210265654Y-106823777D01*
X210240017Y-106855017D01*
X210208777Y-106880654D01*
X210173138Y-106899704D01*
X210134468Y-106911435D01*
X210088112Y-106916000D01*
X209011888Y-106916000D01*
X208965532Y-106911435D01*
X208926862Y-106899704D01*
X208891223Y-106880654D01*
X208859983Y-106855017D01*
X208834346Y-106823777D01*
X208815296Y-106788138D01*
X208803565Y-106749468D01*
X208799000Y-106703112D01*
X208799000Y-106051888D01*
X208803565Y-106005532D01*
X208815296Y-105966862D01*
X208834346Y-105931223D01*
X208859983Y-105899983D01*
X208891223Y-105874346D01*
X208926862Y-105855296D01*
X208965532Y-105843565D01*
X209011888Y-105839000D01*
X210088112Y-105839000D01*
X210134468Y-105843565D01*
G37*
G36*
X222834468Y-105843565D02*
G01*
X222873138Y-105855296D01*
X222908777Y-105874346D01*
X222940017Y-105899983D01*
X222965654Y-105931223D01*
X222984704Y-105966862D01*
X222996435Y-106005532D01*
X223001000Y-106051888D01*
X223001000Y-106703112D01*
X222996435Y-106749468D01*
X222984704Y-106788138D01*
X222965654Y-106823777D01*
X222940017Y-106855017D01*
X222908777Y-106880654D01*
X222873138Y-106899704D01*
X222834468Y-106911435D01*
X222788112Y-106916000D01*
X221711888Y-106916000D01*
X221665532Y-106911435D01*
X221626862Y-106899704D01*
X221591223Y-106880654D01*
X221559983Y-106855017D01*
X221534346Y-106823777D01*
X221515296Y-106788138D01*
X221503565Y-106749468D01*
X221499000Y-106703112D01*
X221499000Y-106051888D01*
X221503565Y-106005532D01*
X221515296Y-105966862D01*
X221534346Y-105931223D01*
X221559983Y-105899983D01*
X221591223Y-105874346D01*
X221626862Y-105855296D01*
X221665532Y-105843565D01*
X221711888Y-105839000D01*
X222788112Y-105839000D01*
X222834468Y-105843565D01*
G37*
G36*
X217818604Y-104488347D02*
G01*
X217855144Y-104499432D01*
X217888821Y-104517433D01*
X217918341Y-104541659D01*
X217942567Y-104571179D01*
X217960568Y-104604856D01*
X217971653Y-104641396D01*
X217976000Y-104685538D01*
X217976000Y-106134462D01*
X217971653Y-106178604D01*
X217960568Y-106215144D01*
X217942567Y-106248821D01*
X217918341Y-106278341D01*
X217888821Y-106302567D01*
X217855144Y-106320568D01*
X217818604Y-106331653D01*
X217774462Y-106336000D01*
X216825538Y-106336000D01*
X216781396Y-106331653D01*
X216744856Y-106320568D01*
X216711179Y-106302567D01*
X216681659Y-106278341D01*
X216657433Y-106248821D01*
X216639432Y-106215144D01*
X216628347Y-106178604D01*
X216624000Y-106134462D01*
X216624000Y-104685538D01*
X216628347Y-104641396D01*
X216639432Y-104604856D01*
X216657433Y-104571179D01*
X216681659Y-104541659D01*
X216711179Y-104517433D01*
X216744856Y-104499432D01*
X216781396Y-104488347D01*
X216825538Y-104484000D01*
X217774462Y-104484000D01*
X217818604Y-104488347D01*
G37*
G36*
X215018604Y-104488347D02*
G01*
X215055144Y-104499432D01*
X215088821Y-104517433D01*
X215118341Y-104541659D01*
X215142567Y-104571179D01*
X215160568Y-104604856D01*
X215171653Y-104641396D01*
X215176000Y-104685538D01*
X215176000Y-106134462D01*
X215171653Y-106178604D01*
X215160568Y-106215144D01*
X215142567Y-106248821D01*
X215118341Y-106278341D01*
X215088821Y-106302567D01*
X215055144Y-106320568D01*
X215018604Y-106331653D01*
X214974462Y-106336000D01*
X214025538Y-106336000D01*
X213981396Y-106331653D01*
X213944856Y-106320568D01*
X213911179Y-106302567D01*
X213881659Y-106278341D01*
X213857433Y-106248821D01*
X213839432Y-106215144D01*
X213828347Y-106178604D01*
X213824000Y-106134462D01*
X213824000Y-104685538D01*
X213828347Y-104641396D01*
X213839432Y-104604856D01*
X213857433Y-104571179D01*
X213881659Y-104541659D01*
X213911179Y-104517433D01*
X213944856Y-104499432D01*
X213981396Y-104488347D01*
X214025538Y-104484000D01*
X214974462Y-104484000D01*
X215018604Y-104488347D01*
G37*
G36*
X205371000Y-106311000D02*
G01*
X203569000Y-106311000D01*
X203569000Y-104509000D01*
X205371000Y-104509000D01*
X205371000Y-106311000D01*
G37*
G36*
X228231000Y-106311000D02*
G01*
X226429000Y-106311000D01*
X226429000Y-104509000D01*
X228231000Y-104509000D01*
X228231000Y-106311000D01*
G37*
G36*
X224916000Y-101916000D02*
G01*
X222314000Y-101916000D01*
X222314000Y-100014000D01*
X224916000Y-100014000D01*
X224916000Y-101916000D01*
G37*
G36*
X220916000Y-101916000D02*
G01*
X218314000Y-101916000D01*
X218314000Y-100014000D01*
X220916000Y-100014000D01*
X220916000Y-101916000D01*
G37*
G36*
X209486000Y-101916000D02*
G01*
X206884000Y-101916000D01*
X206884000Y-100014000D01*
X209486000Y-100014000D01*
X209486000Y-101916000D01*
G37*
G36*
X213486000Y-101916000D02*
G01*
X210884000Y-101916000D01*
X210884000Y-100014000D01*
X213486000Y-100014000D01*
X213486000Y-101916000D01*
G37*
G36*
X208655256Y-87799298D02*
G01*
X208761579Y-87820447D01*
X209062042Y-87944903D01*
X209332451Y-88125585D01*
X209562415Y-88355549D01*
X209743097Y-88625958D01*
X209867553Y-88926421D01*
X209931000Y-89245391D01*
X209931000Y-89570609D01*
X209867553Y-89889579D01*
X209743097Y-90190042D01*
X209562415Y-90460451D01*
X209332451Y-90690415D01*
X209062042Y-90871097D01*
X208761579Y-90995553D01*
X208655256Y-91016702D01*
X208442611Y-91059000D01*
X208117389Y-91059000D01*
X207904744Y-91016702D01*
X207798421Y-90995553D01*
X207497958Y-90871097D01*
X207227549Y-90690415D01*
X206997585Y-90460451D01*
X206816903Y-90190042D01*
X206692447Y-89889579D01*
X206629000Y-89570609D01*
X206629000Y-89245391D01*
X206692447Y-88926421D01*
X206816903Y-88625958D01*
X206997585Y-88355549D01*
X207227549Y-88125585D01*
X207497958Y-87944903D01*
X207798421Y-87820447D01*
X207904744Y-87799298D01*
X208117389Y-87757000D01*
X208442611Y-87757000D01*
X208655256Y-87799298D01*
G37*
G36*
X213735256Y-87799298D02*
G01*
X213841579Y-87820447D01*
X214142042Y-87944903D01*
X214412451Y-88125585D01*
X214642415Y-88355549D01*
X214823097Y-88625958D01*
X214947553Y-88926421D01*
X215011000Y-89245391D01*
X215011000Y-89570609D01*
X214947553Y-89889579D01*
X214823097Y-90190042D01*
X214642415Y-90460451D01*
X214412451Y-90690415D01*
X214142042Y-90871097D01*
X213841579Y-90995553D01*
X213735256Y-91016702D01*
X213522611Y-91059000D01*
X213197389Y-91059000D01*
X212984744Y-91016702D01*
X212878421Y-90995553D01*
X212577958Y-90871097D01*
X212307549Y-90690415D01*
X212077585Y-90460451D01*
X211896903Y-90190042D01*
X211772447Y-89889579D01*
X211709000Y-89570609D01*
X211709000Y-89245391D01*
X211772447Y-88926421D01*
X211896903Y-88625958D01*
X212077585Y-88355549D01*
X212307549Y-88125585D01*
X212577958Y-87944903D01*
X212878421Y-87820447D01*
X212984744Y-87799298D01*
X213197389Y-87757000D01*
X213522611Y-87757000D01*
X213735256Y-87799298D01*
G37*
G36*
X223895256Y-87799298D02*
G01*
X224001579Y-87820447D01*
X224302042Y-87944903D01*
X224572451Y-88125585D01*
X224802415Y-88355549D01*
X224983097Y-88625958D01*
X225107553Y-88926421D01*
X225171000Y-89245391D01*
X225171000Y-89570609D01*
X225107553Y-89889579D01*
X224983097Y-90190042D01*
X224802415Y-90460451D01*
X224572451Y-90690415D01*
X224302042Y-90871097D01*
X224001579Y-90995553D01*
X223895256Y-91016702D01*
X223682611Y-91059000D01*
X223357389Y-91059000D01*
X223144744Y-91016702D01*
X223038421Y-90995553D01*
X222737958Y-90871097D01*
X222467549Y-90690415D01*
X222237585Y-90460451D01*
X222056903Y-90190042D01*
X221932447Y-89889579D01*
X221869000Y-89570609D01*
X221869000Y-89245391D01*
X221932447Y-88926421D01*
X222056903Y-88625958D01*
X222237585Y-88355549D01*
X222467549Y-88125585D01*
X222737958Y-87944903D01*
X223038421Y-87820447D01*
X223144744Y-87799298D01*
X223357389Y-87757000D01*
X223682611Y-87757000D01*
X223895256Y-87799298D01*
G37*
G36*
X218815256Y-87799298D02*
G01*
X218921579Y-87820447D01*
X219222042Y-87944903D01*
X219492451Y-88125585D01*
X219722415Y-88355549D01*
X219903097Y-88625958D01*
X220027553Y-88926421D01*
X220091000Y-89245391D01*
X220091000Y-89570609D01*
X220027553Y-89889579D01*
X219903097Y-90190042D01*
X219722415Y-90460451D01*
X219492451Y-90690415D01*
X219222042Y-90871097D01*
X218921579Y-90995553D01*
X218815256Y-91016702D01*
X218602611Y-91059000D01*
X218277389Y-91059000D01*
X218064744Y-91016702D01*
X217958421Y-90995553D01*
X217657958Y-90871097D01*
X217387549Y-90690415D01*
X217157585Y-90460451D01*
X216976903Y-90190042D01*
X216852447Y-89889579D01*
X216789000Y-89570609D01*
X216789000Y-89245391D01*
X216852447Y-88926421D01*
X216976903Y-88625958D01*
X217157585Y-88355549D01*
X217387549Y-88125585D01*
X217657958Y-87944903D01*
X217958421Y-87820447D01*
X218064744Y-87799298D01*
X218277389Y-87757000D01*
X218602611Y-87757000D01*
X218815256Y-87799298D01*
G37*
M02*
